<svg id="Layer_2" data-name="Layer 2" xmlns="http://www.w3.org/2000/svg" viewBox="0 0 242.32 166.69"><defs><style>.cls-1{fill:#d3eb7c;}.cls-2{fill:#ffe45c;}.cls-3{fill:#eb8942;}.cls-4{fill:#fff;}.cls-5{font-size:27.42px;font-family:PlayfairDisplay-Bold, Playfair Display;font-weight:700;}.cls-12,.cls-5{fill:#333;}.cls-6{letter-spacing:-0.06em;}.cls-7{letter-spacing:0em;}.cls-8{letter-spacing:-0.06em;}.cls-9{letter-spacing:-0.04em;}.cls-10{letter-spacing:-0.02em;}.cls-11{letter-spacing:-0.01em;}.cls-12{font-size:12px;font-family:Montserrat-Regular, Montserrat;}.cls-13{letter-spacing:-0.02em;}.cls-14{letter-spacing:-0.02em;}.cls-15{letter-spacing:-0.01em;}.cls-16{letter-spacing:-0.03em;}.cls-17{letter-spacing:-0.01em;}.cls-18{letter-spacing:0em;}</style></defs><ellipse class="cls-1" cx="41.23" cy="41.24" rx="41.23" ry="40.89"/><ellipse class="cls-2" cx="201.09" cy="41.01" rx="41.23" ry="40.89"/><ellipse class="cls-3" cx="120.97" cy="40.89" rx="41.23" ry="40.89"/><path class="cls-4" d="M80.5,34a20.25,20.25,0,0,1-7,15.23V75.5a4.5,4.5,0,0,1-9,0V49.22a20.3,20.3,0,0,1-3-3.22,19.6,19.6,0,0,1-4-12,18.31,18.31,0,0,1,3-11c1.26-1.83,4.15-6,8.5-6s7.24,4.17,8.5,6A18.31,18.31,0,0,1,80.5,34Z" transform="translate(-29.3 -9.87)"/><path class="cls-4" d="M157.5,63.43V81.57A2.43,2.43,0,0,1,155.07,84h-7.14a2.43,2.43,0,0,1-2.43-2.43V63.43a2.44,2.44,0,0,1,1-2,.76.76,0,0,1,0-.21V59.7a3.51,3.51,0,0,1-1-.7,3.59,3.59,0,0,1-1-2.56V18.56a2.82,2.82,0,0,1,.75-1.81c1.32-1.32,4.21-.16,5.25.25,8.8,3.43,16.34,40.16,12,42a17,17,0,0,1-5.66,1h-.34a5.61,5.61,0,0,1,0,1.23l0,.21A2.44,2.44,0,0,1,157.5,63.43Z" transform="translate(-29.3 -9.87)"/><path class="cls-4" d="M228.5,85a7,7,0,0,0,2.54.56A6.84,6.84,0,0,0,233.5,85c2.75-1.23.3-41.22,0-46a11.78,11.78,0,0,0,1-1,12.88,12.88,0,0,0,2-3V17h-2V31h-1V17h-2V31h-1V17h-2.1l.1,14h-1V17h-2V35a12.88,12.88,0,0,0,2,3,11.78,11.78,0,0,0,1,1C228.2,43.71,225.74,83.77,228.5,85Z" transform="translate(-29.3 -9.87)"/><text class="cls-5" transform="translate(25.2 121.52)"><tspan class="cls-6">P</tspan><tspan class="cls-7" x="16.01" y="0">AS</tspan><tspan class="cls-8" x="50.31" y="0">T</tspan><tspan class="cls-7" x="67.03" y="0">A</tspan><tspan class="cls-9" x="85.32" y="0"> </tspan><tspan class="cls-10" x="90.64" y="0">A</tspan><tspan class="cls-11" x="108.38" y="0">MO</tspan><tspan x="155.09" y="0">RE</tspan></text><text class="cls-12" transform="translate(72.88 147.58)">Salu<tspan class="cls-13" x="25.75" y="0">t</tspan><tspan x="30.4" y="0">e </tspan><tspan class="cls-14" x="40.79" y="0">t</tspan><tspan x="45.43" y="0">o </tspan><tspan class="cls-15" x="56.1" y="0">f</tspan><tspan x="60.05" y="0">amil</tspan><tspan class="cls-16" x="86.31" y="0">y</tspan><tspan x="92.41" y="0">, </tspan><tspan x="-4.99" y="16">f</tspan><tspan class="cls-17" x="-0.92" y="16">r</tspan><tspan class="cls-18" x="3.8" y="16">iends, and good </tspan></text></svg>